<?xml version="1.0" encoding="UTF-8" standalone="no"?>
<svg
   xmlns:dc="http://purl.org/dc/elements/1.1/"
   xmlns:cc="http://creativecommons.org/ns#"
   xmlns:rdf="http://www.w3.org/1999/02/22-rdf-syntax-ns#"
   xmlns:svg="http://www.w3.org/2000/svg"
   xmlns="http://www.w3.org/2000/svg"
   xmlns:sodipodi="http://sodipodi.sourceforge.net/DTD/sodipodi-0.dtd"
   xmlns:inkscape="http://www.inkscape.org/namespaces/inkscape"
   version="1.2"
   id="Layer_1"
   x="0px"
   y="0px"
   width="913.35199"
   height="314.59552"
   viewBox="0 0 913.35199 314.59552"
   xml:space="preserve"
   sodipodi:docname="oracle-bpm-logo.svg"
   inkscape:version="1.0.2-2 (e86c870879, 2021-01-15)"><metadata
   id="metadata45"><rdf:RDF><cc:Work
       rdf:about=""><dc:format>image/svg+xml</dc:format><dc:type
         rdf:resource="http://purl.org/dc/dcmitype/StillImage" /></cc:Work></rdf:RDF></metadata><defs
   id="defs43" /><sodipodi:namedview
   pagecolor="#ffffff"
   bordercolor="#666666"
   borderopacity="1"
   objecttolerance="10"
   gridtolerance="10"
   guidetolerance="10"
   inkscape:pageopacity="0"
   inkscape:pageshadow="2"
   inkscape:window-width="3200"
   inkscape:window-height="1711"
   id="namedview41"
   showgrid="false"
   inkscape:zoom="0.82"
   inkscape:cx="456.676"
   inkscape:cy="155.832"
   inkscape:window-x="2391"
   inkscape:window-y="-9"
   inkscape:window-maximized="1"
   inkscape:current-layer="g38" />
<g
   id="g38"
   transform="translate(-43.324001,-344.168)">
	<g
   id="g18">
		<g
   id="g16">
			<path
   fill="#e2231a"
   d="m 423.553,418.709 h 58.186 l -30.726,-49.611 -56.445,89.597 -25.768,0.003 68.697,-107.543 c 2.938,-4.343 7.972,-6.987 13.472,-6.987 5.389,0 10.332,2.551 13.267,6.795 l 68.9,107.732 -25.701,-0.003 -12.115,-20.027 h -58.918 l -12.849,-19.956"
   id="path2" />
			<path
   fill="#e2231a"
   d="m 690.524,438.667 v -93.403 h -21.848 v 102.587 c 0,2.799 1.175,5.532 3.221,7.514 2.08,2.147 4.945,3.33 7.952,3.33 h 99.379 l 12.95,-20.028 H 690.524"
   id="path4" />
			<path
   fill="#e2231a"
   d="m 329.696,421.965 c 21.242,0 38.309,-17.179 38.309,-38.357 0,-21.188 -17.066,-38.344 -38.309,-38.344 H 234.257 V 458.7 h 21.813 v -93.393 h 72.161 c 10.141,0 18.354,8.176 18.354,18.305 0,10.101 -8.211,18.405 -18.354,18.405 l -61.494,-0.044 65.146,56.724 h 31.642 l -43.76,-36.729 h 9.931"
   id="path6" />
			<path
   fill="#e2231a"
   d="m 100.061,458.695 c -31.322,0 -56.736,-25.342 -56.736,-56.68 0,-31.36 25.414,-56.756 56.736,-56.756 h 65.942 c 31.372,0 56.626,25.394 56.626,56.756 0,31.338 -25.252,56.683 -56.626,56.683 l -65.942,-0.003 m 64.435,-19.956 c 20.328,0 36.733,-16.478 36.733,-36.724 0,-20.315 -16.405,-36.713 -36.733,-36.713 H 101.52 c -20.273,0 -36.683,16.397 -36.683,36.713 0,20.247 16.417,36.724 36.683,36.724 h 62.976"
   id="path8" />
			<path
   fill="#e2231a"
   d="m 578.686,458.695 c -31.357,0 -56.813,-25.342 -56.813,-56.68 0,-31.36 25.456,-56.756 56.813,-56.756 h 78.326 l -12.884,20.039 h -63.952 c -20.361,0 -36.767,16.397 -36.767,36.711 0,20.247 16.405,36.724 36.767,36.724 h 78.561 l -12.74,19.957 h -67.311"
   id="path10" />
			<path
   fill="#e2231a"
   d="m 845.435,438.739 c -16.814,0 -30.977,-11.288 -35.351,-26.717 h 93.206 l 12.85,-19.996 H 810.086 c 4.356,-15.468 18.534,-26.722 35.349,-26.722 h 63.996 l 12.789,-20.039 h -78.253 c -31.294,0 -56.688,25.394 -56.688,56.754 0,31.338 25.397,56.68 56.688,56.68 h 67.313 l 12.779,-19.957 h -78.624"
   id="path12" />
			<path
   fill="#e2231a"
   d="m 933.899,357.372 c 0,-5.538 4.483,-10.021 10.088,-10.021 5.589,0 10.017,4.483 10.017,10.021 0,5.509 -4.428,9.999 -10.017,9.999 -5.604,0 -10.088,-4.49 -10.088,-9.999 m 10.094,12.748 c 7.047,0 12.683,-5.64 12.683,-12.694 0,-7.04 -5.636,-12.802 -12.683,-12.802 -7.104,0 -12.773,5.763 -12.773,12.802 -0.011,7.053 5.667,12.694 12.773,12.694 m -1.237,-20.275 c 1.914,0 2.795,0.09 3.787,0.365 2.48,0.817 2.706,3.168 2.706,3.996 0,0.185 -0.063,0.655 -0.133,1.176 -0.143,0.56 -0.441,1.722 -1.77,2.476 -0.154,0.115 -0.264,0.19 -0.552,0.34 l 3.274,5.909 h -3.192 l -2.938,-5.494 h -1.917 v 5.494 h -2.845 v -14.262 h 3.58 m 1.007,6.458 c 0.866,0 1.785,-0.086 2.327,-0.915 0.381,-0.324 0.434,-0.734 0.434,-1.195 0,-0.81 -0.467,-1.424 -1.114,-1.752 -0.739,-0.304 -1.298,-0.304 -2.655,-0.304 h -0.734 v 4.172 h 1.743"
   id="path14" />
		</g>
	</g>
	<g
   id="g24">
		<g
   id="g22">
			<rect
   x="43.324001"
   y="516.25702"
   width="880.737"
   height="6.2820001"
   id="rect20" />
		</g>
	</g>
	<g
   id="g36">
		
		
		
		
		
	</g>
<g
   aria-label="BPM"
   id="text872"
   style="font-size:101.832px;line-height:1.25;font-family:Resea;-inkscape-font-specification:Resea;stroke-width:0.707163"><path
     d="m 395.08776,658.76349 v -73.62454 h 25.40708 q 7.23007,0 12.32167,1.37473 5.14252,1.37474 8.40114,3.92054 3.30954,2.5458 4.83702,6.16083 1.52748,3.61504 1.52748,8.14656 0,2.59672 -0.76374,4.98977 -0.76374,2.34214 -2.39305,4.42969 -1.57839,2.03664 -4.07328,3.71687 -2.44397,1.68023 -5.85534,2.8513 15.17297,3.41137 15.17297,16.39495 0,4.68427 -1.78206,8.65572 -1.78206,3.97145 -5.19343,6.87366 -3.41137,2.85129 -8.40114,4.48061 -4.98977,1.62931 -11.40519,1.62931 z m 13.6964,-32.28075 v 21.58839 h 13.90007 q 3.8187,0 6.3645,-0.91649 2.59672,-0.91649 4.1242,-2.44397 1.57839,-1.52748 2.2403,-3.56412 0.71282,-2.03664 0.71282,-4.32786 0,-2.39305 -0.76374,-4.27694 -0.76374,-1.93481 -2.39305,-3.25863 -1.62931,-1.37473 -4.17511,-2.08755 -2.5458,-0.71283 -6.16084,-0.71283 z m 0,-9.47037 h 10.94694 q 6.97549,0 10.59053,-2.5458 3.61504,-2.5458 3.61504,-8.09565 0,-5.7535 -3.25863,-8.19747 -3.25862,-2.44397 -10.1832,-2.44397 h -11.71068 z"
     style="font-style:normal;font-variant:normal;font-weight:bold;font-stretch:normal;font-size:101.832px;font-family:Lato;-inkscape-font-specification:'Lato Bold';stroke-width:0.707163"
     id="path938" /><path
     d="m 475.58583,632.84724 v 25.91625 h -13.69641 v -73.62454 h 23.98144 q 7.38282,0 12.77992,1.73115 5.39709,1.73114 8.9103,4.83702 3.5132,3.10587 5.19343,7.43373 1.68023,4.32786 1.68023,9.47038 0,5.34618 -1.78206,9.82679 -1.78206,4.42969 -5.34618,7.6374 -3.56412,3.2077 -8.9103,4.98976 -5.34618,1.78206 -12.52534,1.78206 z m 0,-10.69236 h 10.28503 q 3.76778,0 6.56816,-0.91648 2.80038,-0.96741 4.63336,-2.69855 1.83298,-1.78206 2.74946,-4.27695 0.91649,-2.5458 0.91649,-5.65167 0,-2.95313 -0.91649,-5.34618 -0.91648,-2.39305 -2.74946,-4.07328 -1.83298,-1.68023 -4.63336,-2.5458 -2.80038,-0.91649 -6.56816,-0.91649 h -10.28503 z"
     style="font-style:normal;font-variant:normal;font-weight:bold;font-stretch:normal;font-size:101.832px;font-family:Lato;-inkscape-font-specification:'Lato Bold';stroke-width:0.707163"
     id="path940" /><path
     d="m 562.04099,628.21389 q 0.86558,1.62931 1.5784,3.41137 0.76374,1.73114 1.47656,3.5132 0.71283,-1.83297 1.47657,-3.61503 0.76374,-1.78206 1.62931,-3.41137 l 21.79205,-40.78372 q 0.40733,-0.76374 0.81465,-1.22198 0.45825,-0.45825 0.96741,-0.66191 0.56007,-0.20367 1.22198,-0.25458 0.66191,-0.0509 1.5784,-0.0509 h 10.33595 v 73.62454 h -12.0671 v -47.55555 q 0,-1.32381 0.0509,-2.90221 0.10183,-1.57839 0.25458,-3.20771 l -22.25029,41.75112 q -0.76374,1.42565 -1.98573,2.24031 -1.22198,0.76374 -2.85129,0.76374 h -1.88389 q -1.62932,0 -2.8513,-0.76374 -1.22198,-0.81466 -1.98572,-2.24031 L 536.78664,604.9453 q 0.20366,1.68022 0.25458,3.30954 0.10183,1.57839 0.10183,2.95312 v 47.55555 h -12.06709 v -73.62454 h 10.33595 q 0.91648,0 1.57839,0.0509 0.66191,0.0509 1.17107,0.25458 0.56008,0.20366 1.01832,0.66191 0.45824,0.45824 0.86557,1.22198 l 21.99571,40.88555 z"
     style="font-style:normal;font-variant:normal;font-weight:bold;font-stretch:normal;font-size:101.832px;font-family:Lato;-inkscape-font-specification:'Lato Bold';stroke-width:0.707163"
     id="path942" /></g></g>
</svg>
